<?xml version="1.0" encoding="UTF-8" standalone="no"?>
<svg
   xmlns:dc="http://purl.org/dc/elements/1.1/"
   xmlns:cc="http://creativecommons.org/ns#"
   xmlns:rdf="http://www.w3.org/1999/02/22-rdf-syntax-ns#"
   xmlns:svg="http://www.w3.org/2000/svg"
   xmlns="http://www.w3.org/2000/svg"
   xmlns:sodipodi="http://sodipodi.sourceforge.net/DTD/sodipodi-0.dtd"
   xmlns:inkscape="http://www.inkscape.org/namespaces/inkscape"
   width="72.574135mm"
   height="16.888662mm"
   viewBox="0 0 72.574135 16.888663"
   version="1.1"
   id="svg8"
   inkscape:version="1.0.1 (3bc2e813f5, 2020-09-07)"
   sodipodi:docname="moms-find-moms.svg">
  <defs
     id="defs2">
    <rect
       x="94.133957"
       y="50.615555"
       width="40.453465"
       height="28.333923"
       id="rect845" />
    <rect
       x="41.226913"
       y="77.848534"
       width="35.913479"
       height="16.24029"
       id="rect835" />
    <rect
       x="41.226913"
       y="77.848534"
       width="35.913479"
       height="16.24029"
       id="rect857" />
    <rect
       x="41.226913"
       y="77.848534"
       width="21.927692"
       height="14.355349"
       id="rect863" />
    <rect
       x="41.226913"
       y="77.848534"
       width="35.913479"
       height="16.24029"
       id="rect1053" />
    <rect
       x="41.226913"
       y="77.848534"
       width="35.913479"
       height="16.24029"
       id="rect1055" />
    <rect
       x="41.226913"
       y="77.848534"
       width="21.927692"
       height="14.355349"
       id="rect1057" />
  </defs>
  <sodipodi:namedview
     id="base"
     pagecolor="#ffffff"
     bordercolor="#666666"
     borderopacity="1.0"
     inkscape:pageopacity="0.0"
     inkscape:pageshadow="2"
     inkscape:zoom="3.959798"
     inkscape:cx="142.71427"
     inkscape:cy="68.893786"
     inkscape:document-units="mm"
     inkscape:current-layer="layer1"
     inkscape:document-rotation="0"
     showgrid="false"
     inkscape:pagecheckerboard="true"
     inkscape:window-width="1920"
     inkscape:window-height="1017"
     inkscape:window-x="-8"
     inkscape:window-y="-8"
     inkscape:window-maximized="1" />
  <metadata
     id="metadata5">
    <rdf:RDF>
      <cc:Work
         rdf:about="">
        <dc:format>image/svg+xml</dc:format>
        <dc:type
           rdf:resource="http://purl.org/dc/dcmitype/StillImage" />
        <dc:title />
      </cc:Work>
    </rdf:RDF>
  </metadata>
  <g
     inkscape:label="Laag 1"
     inkscape:groupmode="layer"
     id="layer1"
     transform="translate(-42.745728,-69.775544)">
    <g
       aria-label="Moms"
       transform="translate(0.75952462,-1.0234903)"
       id="text833"
       style="font-size:10.5833px;line-height:1.25;font-family:Consolas;-inkscape-font-specification:Consolas;letter-spacing:0px;word-spacing:0px;white-space:pre;shape-inside:url(#rect835);fill:#ff5555">
      <path
         d="m 44.611358,86.242839 -1.214392,-4.826564 v 5.229638 q 0,0.434081 -0.19637,0.651121 -0.191202,0.217041 -0.511595,0.217041 -0.310058,0 -0.506428,-0.211873 -0.196369,-0.21704 -0.196369,-0.656289 v -5.994447 q 0,-0.496092 0.258381,-0.666624 0.258381,-0.175699 0.69763,-0.175699 h 0.475421 q 0.428913,0 0.620115,0.07751 0.19637,0.07751 0.289388,0.279051 0.09302,0.201538 0.211872,0.656289 l 1.100705,4.149604 1.100704,-4.149604 q 0.118856,-0.454751 0.211873,-0.656289 0.09302,-0.201537 0.284219,-0.279051 0.19637,-0.07751 0.625283,-0.07751 h 0.475422 q 0.439248,0 0.69763,0.175699 0.258381,0.170532 0.258381,0.666624 v 5.994447 q 0,0.434081 -0.19637,0.651121 -0.191202,0.217041 -0.516763,0.217041 -0.30489,0 -0.501259,-0.217041 -0.19637,-0.21704 -0.19637,-0.651121 v -5.229638 l -1.214393,4.826564 q -0.118855,0.470254 -0.196369,0.692462 -0.07235,0.21704 -0.273885,0.397907 -0.201537,0.180867 -0.558103,0.180867 -0.268717,0 -0.454751,-0.118856 -0.186035,-0.113687 -0.289387,-0.294554 -0.103353,-0.180867 -0.165365,-0.397908 -0.05684,-0.222208 -0.118855,-0.459918 z"
         style="font-style:normal;font-variant:normal;font-weight:normal;font-stretch:normal;font-family:'Arial Rounded MT Bold';-inkscape-font-specification:'Arial Rounded MT Bold, ';fill:#ff5555"
         id="path871" />
      <path
         d="m 56.052484,84.646042 q 0,0.63045 -0.19637,1.162716 -0.19637,0.532265 -0.568439,0.91467 -0.372069,0.382404 -0.888832,0.589109 -0.516762,0.201538 -1.162716,0.201538 -0.640785,0 -1.152381,-0.206705 -0.511595,-0.206705 -0.888831,-0.58911 -0.372069,-0.387572 -0.568439,-0.909502 -0.191202,-0.527098 -0.191202,-1.162716 0,-0.640786 0.196369,-1.173051 0.19637,-0.532266 0.563272,-0.909503 0.366901,-0.377236 0.888831,-0.578774 0.521931,-0.206705 1.152381,-0.206705 0.640786,0 1.162716,0.206705 0.521931,0.206705 0.894,0.58911 0.372069,0.382404 0.563271,0.909502 0.19637,0.527098 0.19637,1.162716 z m -1.41593,0 q 0,-0.862994 -0.382404,-1.343583 -0.377237,-0.480589 -1.018023,-0.480589 -0.41341,0 -0.728635,0.21704 -0.315225,0.211873 -0.485757,0.63045 -0.170532,0.418578 -0.170532,0.976682 0,0.552936 0.165364,0.966346 0.170532,0.41341 0.48059,0.635618 0.315225,0.21704 0.73897,0.21704 0.640786,0 1.018023,-0.480589 0.382404,-0.485757 0.382404,-1.338415 z"
         style="font-style:normal;font-variant:normal;font-weight:normal;font-stretch:normal;font-family:'Arial Rounded MT Bold';-inkscape-font-specification:'Arial Rounded MT Bold, ';fill:#ff5555"
         id="path873" />
      <path
         d="m 61.855729,84.749394 v 1.875849 q 0,0.444416 -0.201537,0.666624 -0.201538,0.222208 -0.532266,0.222208 -0.320393,0 -0.52193,-0.222208 -0.19637,-0.222208 -0.19637,-0.666624 v -2.247918 q 0,-0.532265 -0.03617,-0.82682 -0.03617,-0.294555 -0.19637,-0.480589 -0.160196,-0.191203 -0.506427,-0.191203 -0.692462,0 -0.91467,0.475422 -0.217041,0.475422 -0.217041,1.364254 v 1.906854 q 0,0.439248 -0.201537,0.666624 -0.19637,0.222208 -0.52193,0.222208 -0.320393,0 -0.527098,-0.222208 -0.201538,-0.227376 -0.201538,-0.666624 v -4.035917 q 0,-0.397907 0.180867,-0.604612 0.186035,-0.206705 0.485757,-0.206705 0.289387,0 0.480589,0.19637 0.19637,0.191202 0.19637,0.532265 v 0.134359 q 0.366902,-0.439249 0.785479,-0.645954 0.418578,-0.206705 0.930173,-0.206705 0.532266,0 0.91467,0.211873 0.382405,0.211873 0.630451,0.640786 0.356566,-0.434081 0.764808,-0.640786 0.408243,-0.211873 0.904335,-0.211873 0.578774,0 0.997352,0.227376 0.418578,0.227375 0.625283,0.651121 0.180867,0.382404 0.180867,1.204057 v 2.754345 q 0,0.444416 -0.201538,0.666624 -0.201537,0.222208 -0.532265,0.222208 -0.320393,0 -0.527098,-0.222208 -0.201538,-0.227376 -0.201538,-0.666624 v -2.371941 q 0,-0.454751 -0.04134,-0.728635 -0.03617,-0.273884 -0.206705,-0.459919 -0.170531,-0.186035 -0.516762,-0.186035 -0.279052,0 -0.532266,0.165365 -0.248046,0.165364 -0.387572,0.444415 -0.155029,0.356567 -0.155029,1.260901 z"
         style="font-style:normal;font-variant:normal;font-weight:normal;font-stretch:normal;font-family:'Arial Rounded MT Bold';-inkscape-font-specification:'Arial Rounded MT Bold, ';fill:#ff5555"
         id="path876" />
      <path
         d="m 71.069607,85.669232 q 0,0.583942 -0.284219,1.00252 -0.28422,0.41341 -0.842323,0.63045 -0.552937,0.211873 -1.348751,0.211873 -0.759641,0 -1.302242,-0.232543 -0.542601,-0.232544 -0.800982,-0.578775 -0.258381,-0.351398 -0.258381,-0.702797 0,-0.232543 0.165364,-0.397907 0.165364,-0.165364 0.418577,-0.165364 0.222208,0 0.341064,0.10852 0.118855,0.10852 0.227375,0.30489 0.217041,0.377237 0.516763,0.563271 0.30489,0.186035 0.82682,0.186035 0.423746,0 0.692462,-0.186035 0.273884,-0.191202 0.273884,-0.43408 0,-0.37207 -0.284219,-0.542601 -0.279052,-0.170532 -0.925005,-0.325561 -0.728636,-0.180867 -1.188554,-0.377236 -0.454752,-0.201538 -0.728636,-0.527098 -0.273884,-0.325561 -0.273884,-0.800983 0,-0.423745 0.253214,-0.800982 0.253213,-0.377236 0.744138,-0.599444 0.496092,-0.227376 1.193722,-0.227376 0.547768,0 0.981849,0.113688 0.439248,0.113688 0.728635,0.30489 0.294555,0.191202 0.444416,0.423745 0.155029,0.232543 0.155029,0.454751 0,0.242879 -0.165364,0.397908 -0.160197,0.155028 -0.459919,0.155028 -0.21704,0 -0.372069,-0.124023 -0.149861,-0.124023 -0.346231,-0.372069 -0.160196,-0.206705 -0.377237,-0.330728 -0.21704,-0.124023 -0.589109,-0.124023 -0.382405,0 -0.635618,0.165364 -0.253214,0.160197 -0.253214,0.403075 0,0.222208 0.186035,0.366901 0.186034,0.139526 0.501259,0.232544 0.315226,0.09302 0.868162,0.227375 0.656288,0.160197 1.069698,0.382405 0.418578,0.222208 0.630451,0.527098 0.21704,0.299722 0.21704,0.687294 z"
         style="font-style:normal;font-variant:normal;font-weight:normal;font-stretch:normal;font-family:'Arial Rounded MT Bold';-inkscape-font-specification:'Arial Rounded MT Bold, ';fill:#ff5555"
         id="path878" />
    </g>
    <g
       aria-label="Moms"
       transform="translate(44.250257,-0.84986781)"
       id="text855"
       style="font-size:10.5833px;line-height:1.25;font-family:Consolas;-inkscape-font-specification:Consolas;letter-spacing:0px;word-spacing:0px;white-space:pre;shape-inside:url(#rect857);fill:#ff5555">
      <path
         d="m 44.611358,86.242839 -1.214392,-4.826564 v 5.229638 q 0,0.434081 -0.19637,0.651121 -0.191202,0.217041 -0.511595,0.217041 -0.310058,0 -0.506428,-0.211873 -0.196369,-0.21704 -0.196369,-0.656289 v -5.994447 q 0,-0.496092 0.258381,-0.666624 0.258381,-0.175699 0.69763,-0.175699 h 0.475421 q 0.428913,0 0.620115,0.07751 0.19637,0.07751 0.289388,0.279051 0.09302,0.201538 0.211872,0.656289 l 1.100705,4.149604 1.100704,-4.149604 q 0.118856,-0.454751 0.211873,-0.656289 0.09302,-0.201537 0.284219,-0.279051 0.19637,-0.07751 0.625283,-0.07751 h 0.475422 q 0.439248,0 0.69763,0.175699 0.258381,0.170532 0.258381,0.666624 v 5.994447 q 0,0.434081 -0.19637,0.651121 -0.191202,0.217041 -0.516763,0.217041 -0.30489,0 -0.501259,-0.217041 -0.19637,-0.21704 -0.19637,-0.651121 v -5.229638 l -1.214393,4.826564 q -0.118855,0.470254 -0.196369,0.692462 -0.07235,0.21704 -0.273885,0.397907 -0.201537,0.180867 -0.558103,0.180867 -0.268717,0 -0.454751,-0.118856 -0.186035,-0.113687 -0.289387,-0.294554 -0.103353,-0.180867 -0.165365,-0.397908 -0.05684,-0.222208 -0.118855,-0.459918 z"
         style="font-style:normal;font-variant:normal;font-weight:normal;font-stretch:normal;font-family:'Arial Rounded MT Bold';-inkscape-font-specification:'Arial Rounded MT Bold, ';fill:#ff5555"
         id="path890" />
      <path
         d="m 56.052484,84.646042 q 0,0.63045 -0.19637,1.162716 -0.19637,0.532265 -0.568439,0.91467 -0.372069,0.382404 -0.888832,0.589109 -0.516762,0.201538 -1.162716,0.201538 -0.640785,0 -1.152381,-0.206705 -0.511595,-0.206705 -0.888831,-0.58911 -0.372069,-0.387572 -0.568439,-0.909502 -0.191202,-0.527098 -0.191202,-1.162716 0,-0.640786 0.196369,-1.173051 0.19637,-0.532266 0.563272,-0.909503 0.366901,-0.377236 0.888831,-0.578774 0.521931,-0.206705 1.152381,-0.206705 0.640786,0 1.162716,0.206705 0.521931,0.206705 0.894,0.58911 0.372069,0.382404 0.563271,0.909502 0.19637,0.527098 0.19637,1.162716 z m -1.41593,0 q 0,-0.862994 -0.382404,-1.343583 -0.377237,-0.480589 -1.018023,-0.480589 -0.41341,0 -0.728635,0.21704 -0.315225,0.211873 -0.485757,0.63045 -0.170532,0.418578 -0.170532,0.976682 0,0.552936 0.165364,0.966346 0.170532,0.41341 0.48059,0.635618 0.315225,0.21704 0.73897,0.21704 0.640786,0 1.018023,-0.480589 0.382404,-0.485757 0.382404,-1.338415 z"
         style="font-style:normal;font-variant:normal;font-weight:normal;font-stretch:normal;font-family:'Arial Rounded MT Bold';-inkscape-font-specification:'Arial Rounded MT Bold, ';fill:#ff5555"
         id="path892" />
      <path
         d="m 61.855729,84.749394 v 1.875849 q 0,0.444416 -0.201537,0.666624 -0.201538,0.222208 -0.532266,0.222208 -0.320393,0 -0.52193,-0.222208 -0.19637,-0.222208 -0.19637,-0.666624 v -2.247918 q 0,-0.532265 -0.03617,-0.82682 -0.03617,-0.294555 -0.19637,-0.480589 -0.160196,-0.191203 -0.506427,-0.191203 -0.692462,0 -0.91467,0.475422 -0.217041,0.475422 -0.217041,1.364254 v 1.906854 q 0,0.439248 -0.201537,0.666624 -0.19637,0.222208 -0.52193,0.222208 -0.320393,0 -0.527098,-0.222208 -0.201538,-0.227376 -0.201538,-0.666624 v -4.035917 q 0,-0.397907 0.180867,-0.604612 0.186035,-0.206705 0.485757,-0.206705 0.289387,0 0.480589,0.19637 0.19637,0.191202 0.19637,0.532265 v 0.134359 q 0.366902,-0.439249 0.785479,-0.645954 0.418578,-0.206705 0.930173,-0.206705 0.532266,0 0.91467,0.211873 0.382405,0.211873 0.630451,0.640786 0.356566,-0.434081 0.764808,-0.640786 0.408243,-0.211873 0.904335,-0.211873 0.578774,0 0.997352,0.227376 0.418578,0.227375 0.625283,0.651121 0.180867,0.382404 0.180867,1.204057 v 2.754345 q 0,0.444416 -0.201538,0.666624 -0.201537,0.222208 -0.532265,0.222208 -0.320393,0 -0.527098,-0.222208 -0.201538,-0.227376 -0.201538,-0.666624 v -2.371941 q 0,-0.454751 -0.04134,-0.728635 -0.03617,-0.273884 -0.206705,-0.459919 -0.170531,-0.186035 -0.516762,-0.186035 -0.279052,0 -0.532266,0.165365 -0.248046,0.165364 -0.387572,0.444415 -0.155029,0.356567 -0.155029,1.260901 z"
         style="font-style:normal;font-variant:normal;font-weight:normal;font-stretch:normal;font-family:'Arial Rounded MT Bold';-inkscape-font-specification:'Arial Rounded MT Bold, ';fill:#ff5555"
         id="path894" />
      <path
         d="m 71.069607,85.669232 q 0,0.583942 -0.284219,1.00252 -0.28422,0.41341 -0.842323,0.63045 -0.552937,0.211873 -1.348751,0.211873 -0.759641,0 -1.302242,-0.232543 -0.542601,-0.232544 -0.800982,-0.578775 -0.258381,-0.351398 -0.258381,-0.702797 0,-0.232543 0.165364,-0.397907 0.165364,-0.165364 0.418577,-0.165364 0.222208,0 0.341064,0.10852 0.118855,0.10852 0.227375,0.30489 0.217041,0.377237 0.516763,0.563271 0.30489,0.186035 0.82682,0.186035 0.423746,0 0.692462,-0.186035 0.273884,-0.191202 0.273884,-0.43408 0,-0.37207 -0.284219,-0.542601 -0.279052,-0.170532 -0.925005,-0.325561 -0.728636,-0.180867 -1.188554,-0.377236 -0.454752,-0.201538 -0.728636,-0.527098 -0.273884,-0.325561 -0.273884,-0.800983 0,-0.423745 0.253214,-0.800982 0.253213,-0.377236 0.744138,-0.599444 0.496092,-0.227376 1.193722,-0.227376 0.547768,0 0.981849,0.113688 0.439248,0.113688 0.728635,0.30489 0.294555,0.191202 0.444416,0.423745 0.155029,0.232543 0.155029,0.454751 0,0.242879 -0.165364,0.397908 -0.160197,0.155028 -0.459919,0.155028 -0.21704,0 -0.372069,-0.124023 -0.149861,-0.124023 -0.346231,-0.372069 -0.160196,-0.206705 -0.377237,-0.330728 -0.21704,-0.124023 -0.589109,-0.124023 -0.382405,0 -0.635618,0.165364 -0.253214,0.160197 -0.253214,0.403075 0,0.222208 0.186035,0.366901 0.186034,0.139526 0.501259,0.232544 0.315226,0.09302 0.868162,0.227375 0.656288,0.160197 1.069698,0.382405 0.418578,0.222208 0.630451,0.527098 0.21704,0.299722 0.21704,0.687294 z"
         style="font-style:normal;font-variant:normal;font-weight:normal;font-stretch:normal;font-family:'Arial Rounded MT Bold';-inkscape-font-specification:'Arial Rounded MT Bold, ';fill:#ff5555"
         id="path896" />
    </g>
    <g
       aria-label="find"
       transform="matrix(0.59253234,0,0,0.59253234,48.892873,34.570739)"
       id="text861"
       style="font-size:10.5833px;line-height:1.25;font-family:Consolas;-inkscape-font-specification:Consolas;letter-spacing:0px;word-spacing:0px;white-space:pre;shape-inside:url(#rect863);fill:#000000">
      <path
         d="m 41.84151,81.902032 h 0.335896 v -0.423745 q 0,-0.661457 0.165364,-1.049029 0.170532,-0.392739 0.568439,-0.568439 0.403075,-0.180866 1.100704,-0.180866 1.235063,0 1.235063,0.604612 0,0.19637 -0.129191,0.335896 -0.12919,0.139526 -0.30489,0.139526 -0.08268,0 -0.284219,-0.03101 -0.201537,-0.03101 -0.341063,-0.03101 -0.382405,0 -0.490925,0.227376 -0.10852,0.222208 -0.10852,0.640785 v 0.335896 h 0.346231 q 0.80615,0 0.80615,0.485757 0,0.346231 -0.217041,0.439248 -0.211872,0.09302 -0.589109,0.09302 h -0.346231 v 3.736194 q 0,0.418577 -0.201538,0.640785 -0.196369,0.217041 -0.511595,0.217041 -0.299722,0 -0.501259,-0.217041 -0.19637,-0.222208 -0.19637,-0.640785 v -3.736194 h -0.387572 q -0.315225,0 -0.485757,-0.139526 -0.170532,-0.144694 -0.170532,-0.37207 0,-0.506427 0.707965,-0.506427 z"
         style="font-style:normal;font-variant:normal;font-weight:normal;font-stretch:normal;font-family:'Arial Rounded MT Bold';-inkscape-font-specification:'Arial Rounded MT Bold, ';fill:#000000"
         id="path881" />
      <path
         d="m 47.019472,82.578991 v 4.077258 q 0,0.423745 -0.201537,0.640785 -0.201538,0.217041 -0.511596,0.217041 -0.310057,0 -0.506427,-0.222208 -0.191202,-0.222208 -0.191202,-0.635618 v -4.035917 q 0,-0.418578 0.191202,-0.63045 0.19637,-0.211873 0.506427,-0.211873 0.310058,0 0.511596,0.211873 0.201537,0.211872 0.201537,0.589109 z m -0.69763,-1.457271 q -0.294554,0 -0.506427,-0.180867 -0.206705,-0.180866 -0.206705,-0.511595 0,-0.299722 0.211873,-0.490924 0.21704,-0.19637 0.501259,-0.19637 0.273885,0 0.485757,0.175699 0.211873,0.1757 0.211873,0.511595 0,0.325561 -0.206705,0.511595 -0.206705,0.180867 -0.490925,0.180867 z"
         style="font-style:normal;font-variant:normal;font-weight:normal;font-stretch:normal;font-family:'Arial Rounded MT Bold';-inkscape-font-specification:'Arial Rounded MT Bold, ';fill:#000000"
         id="path883" />
      <path
         d="m 49.758314,82.558321 v 0.170531 q 0.372069,-0.490924 0.811318,-0.7183 0.444416,-0.232543 1.018022,-0.232543 0.558104,0 0.997352,0.242878 0.439248,0.242879 0.656289,0.687295 0.139526,0.258381 0.180867,0.558103 0.04134,0.299723 0.04134,0.764809 v 2.625155 q 0,0.423745 -0.19637,0.640785 -0.191202,0.217041 -0.50126,0.217041 -0.315225,0 -0.511595,-0.222208 -0.19637,-0.222208 -0.19637,-0.635618 v -2.351271 q 0,-0.697629 -0.19637,-1.064531 -0.191202,-0.372069 -0.769976,-0.372069 -0.377237,0 -0.687294,0.227376 -0.310058,0.222208 -0.454752,0.614947 -0.103352,0.315226 -0.103352,1.178219 v 1.767329 q 0,0.428913 -0.201538,0.645953 -0.196369,0.211873 -0.511595,0.211873 -0.30489,0 -0.501259,-0.222208 -0.19637,-0.222208 -0.19637,-0.635618 v -4.077258 q 0,-0.403075 0.175699,-0.599445 0.175699,-0.201537 0.480589,-0.201537 0.186035,0 0.335896,0.08785 0.149861,0.08785 0.237711,0.263549 0.09302,0.175699 0.09302,0.428913 z"
         style="font-style:normal;font-variant:normal;font-weight:normal;font-stretch:normal;font-family:'Arial Rounded MT Bold';-inkscape-font-specification:'Arial Rounded MT Bold, ';fill:#000000"
         id="path885" />
      <path
         d="m 58.734482,86.707925 v -0.139526 q -0.284219,0.32556 -0.563271,0.532266 -0.273884,0.201537 -0.599445,0.30489 -0.320393,0.10852 -0.702797,0.10852 -0.506428,0 -0.940508,-0.211873 -0.428913,-0.21704 -0.744138,-0.614948 -0.315226,-0.397907 -0.48059,-0.93534 -0.160196,-0.537433 -0.160196,-1.162716 0,-1.322913 0.645953,-2.061883 0.645954,-0.738971 1.700149,-0.738971 0.60978,0 1.028358,0.211873 0.418578,0.206705 0.816485,0.640786 v -2.082554 q 0,-0.434081 0.170532,-0.656289 0.175699,-0.222207 0.496092,-0.222207 0.320393,0 0.490925,0.206705 0.175699,0.201537 0.175699,0.599444 v 6.221823 q 0,0.403075 -0.186035,0.604612 -0.186034,0.201538 -0.480589,0.201538 -0.289387,0 -0.480589,-0.206705 -0.186035,-0.211873 -0.186035,-0.599445 z m -2.775015,-2.072218 q 0,0.573606 0.175699,0.976681 0.180867,0.403075 0.490924,0.60978 0.310058,0.201537 0.67696,0.201537 0.372069,0 0.676959,-0.191202 0.310057,-0.19637 0.490924,-0.594277 0.186035,-0.403075 0.186035,-1.002519 0,-0.563272 -0.186035,-0.966347 -0.180867,-0.408242 -0.496092,-0.620115 -0.310058,-0.21704 -0.682127,-0.21704 -0.387572,0 -0.692462,0.222208 -0.30489,0.21704 -0.475421,0.63045 -0.165364,0.408243 -0.165364,0.950844 z"
         style="font-style:normal;font-variant:normal;font-weight:normal;font-stretch:normal;font-family:'Arial Rounded MT Bold';-inkscape-font-specification:'Arial Rounded MT Bold, ';fill:#000000"
         id="path887" />
    </g>
    <path
       fill="currentColor"
       d="m 84.404472,97.547351 c -0.221376,-0.212763 -0.566581,-0.198843 -0.799203,0 l -1.733479,1.469444 c -0.21201,0.180945 -0.476531,0.278378 -0.750431,0.278378 h -2.219381 c -0.165088,0 -0.300169,-0.143167 -0.300169,-0.318148 0,-0.174975 0.135065,-0.318146 0.300169,-0.318146 h 1.468952 c 0.29829,0 0.575957,-0.216737 0.62474,-0.528922 0.06192,-0.397683 -0.227012,-0.743668 -0.592841,-0.743668 h -3.001698 c -0.506539,0 -0.996185,0.184924 -1.390159,0.522954 l -0.872374,0.749636 h -1.039331 c -0.165106,0 -0.300175,0.143166 -0.300175,0.318146 v 1.908895 c 0,0.17497 0.135083,0.31815 0.300175,0.31815 h 6.693785 c 0.272015,0 0.536549,-0.0975 0.750416,-0.27838 l 2.836611,-2.406 c 0.28516,-0.240601 0.307667,-0.701913 0.02437,-0.972339 z"
       id="path875"
       style="display:none;stroke-width:0.0193143"
       sodipodi:nodetypes="cccssssscssccssssscccc" />
    <path
       style="fill:#ff5555;fill-rule:evenodd;stroke-width:0.0503277;stroke-linecap:round;stroke-linejoin:round"
       d="m 78.95431,75.080958 c -0.21281,-0.121162 -2.394161,-2.604716 -2.535775,-2.887078 -0.122656,-0.244566 -0.138541,-0.332341 -0.14083,-0.778138 -0.0029,-0.564143 0.07292,-0.787886 0.396342,-1.169691 0.551622,-0.65119 1.57631,-0.622419 2.184435,0.06133 l 0.203736,0.229074 0.266087,-0.254255 c 0.411664,-0.39336 0.63275,-0.491619 1.111715,-0.49408 0.480003,-0.0024 0.697633,0.09154 1.024515,0.442527 0.329124,0.353398 0.429724,0.619518 0.437062,1.156197 0.0097,0.705315 -0.06641,0.830034 -1.441221,2.363471 -0.954919,1.065093 -1.297482,1.408453 -1.389623,1.392851 -0.0056,-9.57e-4 -0.05802,-0.02895 -0.116443,-0.06222 z"
       id="path904" />
    <path
       fill="currentColor"
       d="m 77.174284,75.925465 c -0.170434,-0.22671 -0.493615,-0.273338 -0.720324,-0.102904 -0.226709,0.170433 -0.273337,0.493615 -0.102904,0.720324 l 0.612597,0.816796 c 0.07718,0.102904 0.06592,0.246004 -0.02412,0.336044 l -0.205806,0.205807 c -0.107727,0.107727 -0.282985,0.09969 -0.379457,-0.01768 l -1.443864,-1.73328 v -2.386074 c 0,-0.284593 -0.229924,-0.514517 -0.514517,-0.514517 -0.284592,0 -0.514517,0.229924 -0.514517,0.514517 v 3.51158 c 0,0.175257 0.05949,0.345691 0.168826,0.48236 l 1.673789,2.159364 c 0.08039,0.104511 0.13506,0.223494 0.167218,0.348907 0.02894,0.110943 0.130237,0.186513 0.246004,0.186513 h 2.117559 c 0.141493,0 0.25726,-0.115766 0.25726,-0.257259 v -1.800812 c 0,-0.445379 -0.144708,-0.877895 -0.411615,-1.234841 z m 6.482917,-2.67549 c -0.284592,0 -0.514517,0.229924 -0.514517,0.514517 v 2.386074 l -1.443865,1.73328 c -0.09647,0.115766 -0.273336,0.123805 -0.379455,0.01768 l -0.205808,-0.205805 c -0.09004,-0.09004 -0.101295,-0.23314 -0.02412,-0.336044 l 0.612596,-0.816796 c 0.170434,-0.226709 0.123806,-0.54989 -0.102903,-0.720324 -0.226709,-0.170434 -0.54989,-0.123806 -0.720325,0.102904 l -0.926131,1.234841 c -0.266905,0.356947 -0.411613,0.789462 -0.411613,1.234841 v 1.80081 c 0,0.141493 0.115766,0.257259 0.257258,0.257259 h 2.11756 c 0.114159,0 0.217062,-0.07557 0.246003,-0.186513 0.03215,-0.125413 0.08682,-0.244395 0.167219,-0.348907 l 1.673789,-2.159364 c 0.109335,-0.136669 0.168825,-0.307102 0.168825,-0.48236 v -3.51158 c 0,-0.284593 -0.229924,-0.514517 -0.514517,-0.514517 z"
       id="path1026"
       style="stroke-width:0.0160786" />
    <text
       xml:space="preserve"
       id="text1039"
       style="font-size:10.5833px;line-height:1.25;font-family:Consolas;-inkscape-font-specification:Consolas;letter-spacing:0px;word-spacing:0px;white-space:pre;shape-inside:url(#rect1053);display:none;fill:#ff5555;"
       transform="translate(0.8390924,20.182482)" />
    <text
       xml:space="preserve"
       id="text1043"
       style="font-size:10.5833px;line-height:1.25;font-family:Consolas;-inkscape-font-specification:Consolas;letter-spacing:0px;word-spacing:0px;white-space:pre;shape-inside:url(#rect1055);display:none;fill:#ff5555;"
       transform="translate(44.330051,20.22247)" />
    <text
       xml:space="preserve"
       id="text1047"
       style="font-size:10.5833px;line-height:1.25;font-family:Consolas;-inkscape-font-specification:Consolas;letter-spacing:0px;word-spacing:0px;white-space:pre;shape-inside:url(#rect1057);display:none;fill:#000000;"
       transform="matrix(0.59253234,0,0,0.59253234,48.972667,55.643077)" />
    <path
       style="display:none;fill:#ff5555;fill-rule:evenodd;stroke-width:0.0503277;stroke-linecap:round;stroke-linejoin:round"
       d="m 78.928226,96.10587 c -0.21281,-0.121162 -2.394161,-2.604716 -2.535775,-2.887078 -0.122656,-0.244566 -0.138541,-0.332341 -0.14083,-0.778138 -0.0029,-0.564143 0.07292,-0.787886 0.396342,-1.169691 0.551622,-0.65119 1.57631,-0.622419 2.184435,0.06133 l 0.203736,0.229074 0.266087,-0.254255 c 0.411664,-0.39336 0.63275,-0.491619 1.111715,-0.49408 0.480003,-0.0024 0.697633,0.09154 1.024515,0.442527 0.329124,0.353398 0.429724,0.619518 0.437062,1.156197 0.0097,0.705315 -0.06641,0.830034 -1.441221,2.363471 -0.954919,1.065093 -1.297482,1.408453 -1.389623,1.392851 -0.0056,-9.57e-4 -0.05802,-0.02895 -0.116443,-0.06222 z"
       id="path1049" />
  </g>
</svg>
