<?xml version="1.0" encoding="UTF-8" standalone="no"?>
<svg
   xmlns:dc="http://purl.org/dc/elements/1.1/"
   xmlns:cc="http://creativecommons.org/ns#"
   xmlns:rdf="http://www.w3.org/1999/02/22-rdf-syntax-ns#"
   xmlns:svg="http://www.w3.org/2000/svg"
   xmlns="http://www.w3.org/2000/svg"
   xmlns:sodipodi="http://sodipodi.sourceforge.net/DTD/sodipodi-0.dtd"
   xmlns:inkscape="http://www.inkscape.org/namespaces/inkscape"
   width="10.290342mm"
   height="10.677678mm"
   viewBox="0 0 10.290342 10.677678"
   version="1.1"
   id="svg8"
   inkscape:version="1.0.1 (3bc2e813f5, 2020-09-07)"
   sodipodi:docname="moms-find-moms-icon.svg">
  <defs
     id="defs2">
    <rect
       x="94.133957"
       y="50.615555"
       width="40.453465"
       height="28.333923"
       id="rect845" />
    <rect
       x="41.226913"
       y="77.848534"
       width="35.913479"
       height="16.24029"
       id="rect835" />
    <rect
       x="41.226913"
       y="77.848534"
       width="35.913479"
       height="16.24029"
       id="rect857" />
    <rect
       x="41.226913"
       y="77.848534"
       width="21.927692"
       height="14.355349"
       id="rect863" />
    <rect
       x="41.226913"
       y="77.848534"
       width="35.913479"
       height="16.24029"
       id="rect1053" />
    <rect
       x="41.226913"
       y="77.848534"
       width="35.913479"
       height="16.24029"
       id="rect1055" />
    <rect
       x="41.226913"
       y="77.848534"
       width="21.927692"
       height="14.355349"
       id="rect1057" />
  </defs>
  <sodipodi:namedview
     id="base"
     pagecolor="#ffffff"
     bordercolor="#666666"
     borderopacity="1.0"
     inkscape:pageopacity="0.0"
     inkscape:pageshadow="2"
     inkscape:zoom="3.959798"
     inkscape:cx="25.036245"
     inkscape:cy="68.893786"
     inkscape:document-units="mm"
     inkscape:current-layer="layer1"
     inkscape:document-rotation="0"
     showgrid="false"
     inkscape:pagecheckerboard="true"
     inkscape:window-width="1920"
     inkscape:window-height="1017"
     inkscape:window-x="-8"
     inkscape:window-y="-8"
     inkscape:window-maximized="1" />
  <metadata
     id="metadata5">
    <rdf:RDF>
      <cc:Work
         rdf:about="">
        <dc:format>image/svg+xml</dc:format>
        <dc:type
           rdf:resource="http://purl.org/dc/dcmitype/StillImage" />
        <dc:title></dc:title>
      </cc:Work>
    </rdf:RDF>
  </metadata>
  <g
     inkscape:label="Laag 1"
     inkscape:groupmode="layer"
     id="layer1"
     transform="translate(-73.881372,-69.775544)">
    <text
       xml:space="preserve"
       id="text833"
       style="font-size:10.5833px;line-height:1.25;font-family:Consolas;-inkscape-font-specification:Consolas;letter-spacing:0px;word-spacing:0px;white-space:pre;shape-inside:url(#rect835);fill:#ff5555;"
       transform="translate(0.75952462,-1.0234903)"><tspan
         x="41.226562"
         y="87.384884"><tspan
           style="font-style:normal;font-variant:normal;font-weight:normal;font-stretch:normal;font-family:'Arial Rounded MT Bold';-inkscape-font-specification:'Arial Rounded MT Bold, ';fill:#ff5555">Moms</tspan></tspan></text>
    <text
       xml:space="preserve"
       id="text855"
       style="font-size:10.5833px;line-height:1.25;font-family:Consolas;-inkscape-font-specification:Consolas;letter-spacing:0px;word-spacing:0px;white-space:pre;shape-inside:url(#rect857);fill:#ff5555;"
       transform="translate(44.250257,-0.84986781)"><tspan
         x="41.226562"
         y="87.384884"><tspan
           style="font-style:normal;font-variant:normal;font-weight:normal;font-stretch:normal;font-family:'Arial Rounded MT Bold';-inkscape-font-specification:'Arial Rounded MT Bold, ';fill:#ff5555">Moms</tspan></tspan></text>
    <text
       xml:space="preserve"
       id="text861"
       style="font-size:10.5833px;line-height:1.25;font-family:Consolas;-inkscape-font-specification:Consolas;letter-spacing:0px;word-spacing:0px;white-space:pre;shape-inside:url(#rect863);fill:#000000;"
       transform="matrix(0.59253234,0,0,0.59253234,48.892873,34.570739)"><tspan
         x="41.226562"
         y="87.384884"><tspan
           style="font-style:normal;font-variant:normal;font-weight:normal;font-stretch:normal;font-family:'Arial Rounded MT Bold';-inkscape-font-specification:'Arial Rounded MT Bold, ';fill:#000000">find</tspan></tspan></text>
    <path
       fill="currentColor"
       d="m 84.404472,97.547351 c -0.221376,-0.212763 -0.566581,-0.198843 -0.799203,0 l -1.733479,1.469444 c -0.21201,0.180945 -0.476531,0.278378 -0.750431,0.278378 h -2.219381 c -0.165088,0 -0.300169,-0.143167 -0.300169,-0.318148 0,-0.174975 0.135065,-0.318146 0.300169,-0.318146 h 1.468952 c 0.29829,0 0.575957,-0.216737 0.62474,-0.528922 0.06192,-0.397683 -0.227012,-0.743668 -0.592841,-0.743668 h -3.001698 c -0.506539,0 -0.996185,0.184924 -1.390159,0.522954 l -0.872374,0.749636 h -1.039331 c -0.165106,0 -0.300175,0.143166 -0.300175,0.318146 v 1.908895 c 0,0.17497 0.135083,0.31815 0.300175,0.31815 h 6.693785 c 0.272015,0 0.536549,-0.0975 0.750416,-0.27838 l 2.836611,-2.406 c 0.28516,-0.240601 0.307667,-0.701913 0.02437,-0.972339 z"
       id="path875"
       style="display:inline;stroke-width:0.0193143"
       sodipodi:nodetypes="cccssssscssccssssscccc" />
    <path
       style="fill:#ff5555;fill-rule:evenodd;stroke-width:0.0503277;stroke-linecap:round;stroke-linejoin:round"
       d="m 78.95431,75.080958 c -0.21281,-0.121162 -2.394161,-2.604716 -2.535775,-2.887078 -0.122656,-0.244566 -0.138541,-0.332341 -0.14083,-0.778138 -0.0029,-0.564143 0.07292,-0.787886 0.396342,-1.169691 0.551622,-0.65119 1.57631,-0.622419 2.184435,0.06133 l 0.203736,0.229074 0.266087,-0.254255 c 0.411664,-0.39336 0.63275,-0.491619 1.111715,-0.49408 0.480003,-0.0024 0.697633,0.09154 1.024515,0.442527 0.329124,0.353398 0.429724,0.619518 0.437062,1.156197 0.0097,0.705315 -0.06641,0.830034 -1.441221,2.363471 -0.954919,1.065093 -1.297482,1.408453 -1.389623,1.392851 -0.0056,-9.57e-4 -0.05802,-0.02895 -0.116443,-0.06222 z"
       id="path904" />
    <path
       fill="currentColor"
       d="m 77.174284,75.925465 c -0.170434,-0.22671 -0.493615,-0.273338 -0.720324,-0.102904 -0.226709,0.170433 -0.273337,0.493615 -0.102904,0.720324 l 0.612597,0.816796 c 0.07718,0.102904 0.06592,0.246004 -0.02412,0.336044 l -0.205806,0.205807 c -0.107727,0.107727 -0.282985,0.09969 -0.379457,-0.01768 l -1.443864,-1.73328 v -2.386074 c 0,-0.284593 -0.229924,-0.514517 -0.514517,-0.514517 -0.284592,0 -0.514517,0.229924 -0.514517,0.514517 v 3.51158 c 0,0.175257 0.05949,0.345691 0.168826,0.48236 l 1.673789,2.159364 c 0.08039,0.104511 0.13506,0.223494 0.167218,0.348907 0.02894,0.110943 0.130237,0.186513 0.246004,0.186513 h 2.117559 c 0.141493,0 0.25726,-0.115766 0.25726,-0.257259 v -1.800812 c 0,-0.445379 -0.144708,-0.877895 -0.411615,-1.234841 z m 6.482917,-2.67549 c -0.284592,0 -0.514517,0.229924 -0.514517,0.514517 v 2.386074 l -1.443865,1.73328 c -0.09647,0.115766 -0.273336,0.123805 -0.379455,0.01768 l -0.205808,-0.205805 c -0.09004,-0.09004 -0.101295,-0.23314 -0.02412,-0.336044 l 0.612596,-0.816796 c 0.170434,-0.226709 0.123806,-0.54989 -0.102903,-0.720324 -0.226709,-0.170434 -0.54989,-0.123806 -0.720325,0.102904 l -0.926131,1.234841 c -0.266905,0.356947 -0.411613,0.789462 -0.411613,1.234841 v 1.80081 c 0,0.141493 0.115766,0.257259 0.257258,0.257259 h 2.11756 c 0.114159,0 0.217062,-0.07557 0.246003,-0.186513 0.03215,-0.125413 0.08682,-0.244395 0.167219,-0.348907 l 1.673789,-2.159364 c 0.109335,-0.136669 0.168825,-0.307102 0.168825,-0.48236 v -3.51158 c 0,-0.284593 -0.229924,-0.514517 -0.514517,-0.514517 z"
       id="path1026"
       style="stroke-width:0.0160786" />
    <text
       xml:space="preserve"
       id="text1039"
       style="font-size:10.5833px;line-height:1.25;font-family:Consolas;-inkscape-font-specification:Consolas;letter-spacing:0px;word-spacing:0px;white-space:pre;shape-inside:url(#rect1053);fill:#ff5555;"
       transform="translate(0.8390924,20.182482)"><tspan
         x="41.226562"
         y="87.384884"><tspan
           style="font-style:normal;font-variant:normal;font-weight:normal;font-stretch:normal;font-family:'Arial Rounded MT Bold';-inkscape-font-specification:'Arial Rounded MT Bold, ';fill:#ff5555">Moms</tspan></tspan></text>
    <text
       xml:space="preserve"
       id="text1043"
       style="font-size:10.5833px;line-height:1.25;font-family:Consolas;-inkscape-font-specification:Consolas;letter-spacing:0px;word-spacing:0px;white-space:pre;shape-inside:url(#rect1055);fill:#ff5555;"
       transform="translate(44.330051,20.22247)"><tspan
         x="41.226562"
         y="87.384884"><tspan
           style="font-style:normal;font-variant:normal;font-weight:normal;font-stretch:normal;font-family:'Arial Rounded MT Bold';-inkscape-font-specification:'Arial Rounded MT Bold, ';fill:#ff5555">Moms</tspan></tspan></text>
    <text
       xml:space="preserve"
       id="text1047"
       style="font-size:10.5833px;line-height:1.25;font-family:Consolas;-inkscape-font-specification:Consolas;letter-spacing:0px;word-spacing:0px;white-space:pre;shape-inside:url(#rect1057);fill:#000000;"
       transform="matrix(0.59253234,0,0,0.59253234,48.972667,55.643077)"><tspan
         x="41.226562"
         y="87.384884"><tspan
           style="font-style:normal;font-variant:normal;font-weight:normal;font-stretch:normal;font-family:'Arial Rounded MT Bold';-inkscape-font-specification:'Arial Rounded MT Bold, ';fill:#000000">find</tspan></tspan></text>
    <path
       style="fill:#ff5555;fill-rule:evenodd;stroke-width:0.0503277;stroke-linecap:round;stroke-linejoin:round"
       d="m 78.928226,96.10587 c -0.21281,-0.121162 -2.394161,-2.604716 -2.535775,-2.887078 -0.122656,-0.244566 -0.138541,-0.332341 -0.14083,-0.778138 -0.0029,-0.564143 0.07292,-0.787886 0.396342,-1.169691 0.551622,-0.65119 1.57631,-0.622419 2.184435,0.06133 l 0.203736,0.229074 0.266087,-0.254255 c 0.411664,-0.39336 0.63275,-0.491619 1.111715,-0.49408 0.480003,-0.0024 0.697633,0.09154 1.024515,0.442527 0.329124,0.353398 0.429724,0.619518 0.437062,1.156197 0.0097,0.705315 -0.06641,0.830034 -1.441221,2.363471 -0.954919,1.065093 -1.297482,1.408453 -1.389623,1.392851 -0.0056,-9.57e-4 -0.05802,-0.02895 -0.116443,-0.06222 z"
       id="path1049" />
  </g>
</svg>
